# xmcd
#
# Track frame offsets:
#	150
#	1156
#	13497
#	14760
#	24391
#	25187
#	38063
#	39249
#	54923
#	56756
#	72730
#	73762
#	85233
#	86086
#	99872
#	100631
#	116356
#	117128
#	127234
#	127912
#	140660
#	141919
#	155200
#	156298
#	173031
#	175022
#	186669
#	187245
#	202871
#	203790
#	214630
#	215373
#	227974
#	228840
#
# Disc length: 3191 seconds
#
# Revision: 0
# Processed by: cddbd v1.4PL0 Copyright (c) Steve Scherf et al.
# Submitted via: EasyCDDAExtractor 4.5.2.1
#
DISCID=e60c7522
DTITLE=Diversos - O Melhor da Festa de Rodeo
DYEAR=2000
DGENRE=Country
TTITLE0=Locução - Marco Brasil
TTITLE1=Carminha
TTITLE2=Locução - Marco Brasil
TTITLE3=Quem Tem, Tem Medo
TTITLE4=Locução - Marco Brasil
TTITLE5=Garagem da Vizinha
TTITLE6=Locução - Jorge Moises
TTITLE7=Ô de Casa Ô de Fora
TTITLE8=Locução - Asa Branca
TTITLE9=Muleca
TTITLE10=Locução - Asa Branca
TTITLE11=Socorro
TTITLE12=Locução - Asa Branca
TTITLE13=Jogo de Truco
TTITLE14=Locução - Barra Mansa
TTITLE15=Saudade Dela
TTITLE16=Locução - Barra Mansa
TTITLE17=60 Dias Apaixonados
TTITLE18=Locução - Adriano do Vale
TTITLE19=Vira e Mexe
TTITLE20=Locução - Jorge Moises
TTITLE21=Sofro e Choro
TTITLE22=Locução - Jorge Moises
TTITLE23=Mexe e Que é Bom
TTITLE24=Locução - Jorge Moises
TTITLE25=Baile na Roça
TTITLE26=Locução - Marco Brasil
TTITLE27=Mulher Madura
TTITLE28=Locução - Jorge Moises
TTITLE29=Garalhão da Madrugada
TTITLE30=Locução - Asa Branca
TTITLE31=Recortando Paulista
TTITLE32=Locução - Asa Branca
TTITLE33=Meu Negócio é Mulher
EXTD=By Rogerio
EXTT0=
EXTT1=
EXTT2=
EXTT3=
EXTT4=
EXTT5=
EXTT6=
EXTT7=
EXTT8=
EXTT9=
EXTT10=
EXTT11=
EXTT12=
EXTT13=
EXTT14=
EXTT15=
EXTT16=
EXTT17=
EXTT18=
EXTT19=
EXTT20=
EXTT21=
EXTT22=
EXTT23=
EXTT24=
EXTT25=
EXTT26=
EXTT27=
EXTT28=
EXTT29=
EXTT30=
EXTT31=
EXTT32=
EXTT33=
PLAYORDER=
